<?xml version="1.0" encoding="UTF-8" standalone="no"?>
<!DOCTYPE svg PUBLIC "-//W3C//DTD SVG 1.1//EN"
 "http://www.w3.org/Graphics/SVG/1.1/DTD/svg11.dtd">
<!-- Generated by graphviz version 2.40.1 (20161225.0304)
 -->
<!-- Title: G Pages: 1 -->
<svg width="248pt" height="278pt"
 viewBox="0.00 0.00 248.00 278.00" xmlns="http://www.w3.org/2000/svg" xmlns:xlink="http://www.w3.org/1999/xlink">
<g id="graph0" class="graph" transform="scale(1 1) rotate(0) translate(4 274)">
<title>G</title>
<polygon fill="#ffffff" stroke="transparent" points="-4,4 -4,-274 244.003,-274 244.003,4 -4,4"/>
<!-- A0 -->
<g id="node1" class="node">
<title>A0</title>
<polygon fill="#fff8dc" stroke="#000000" points="97.009,-228 -.003,-228 -.003,-192 103.009,-192 103.009,-222 97.009,-228"/>
<polyline fill="none" stroke="#000000" points="97.009,-228 97.009,-222 "/>
<polyline fill="none" stroke="#000000" points="103.009,-222 97.009,-222 "/>
<text text-anchor="middle" x="51.503" y="-213" font-family="Helvetica,sans-Serif" font-size="10.00" fill="#000000">Class diagram to</text>
<text text-anchor="middle" x="51.503" y="-201" font-family="Helvetica,sans-Serif" font-size="10.00" fill="#000000">Lista telefonica</text>
</g>
<!-- A1 -->
<g id="node2" class="node">
<title>A1</title>
<polygon fill="none" stroke="#000000" points="121.503,-226 121.503,-270 240.503,-270 240.503,-226 121.503,-226"/>
<text text-anchor="start" x="151.2695" y="-251" font-family="Helvetica,sans-Serif" font-size="10.00" fill="#000000">≪Interface&gt;&gt;</text>
<text text-anchor="start" x="131.266" y="-239" font-family="Helvetica,sans-Serif" font-size="10.00" fill="#000000">Comparable&lt;Pessoa&gt;</text>
<polygon fill="none" stroke="#000000" points="121.503,-206 121.503,-226 240.503,-226 240.503,-206 121.503,-206"/>
<polygon fill="none" stroke="#000000" points="121.503,-150 121.503,-206 240.503,-206 240.503,-150 121.503,-150"/>
<text text-anchor="start" x="138.7745" y="-187" font-family="Helvetica,sans-Serif" font-size="10.00" fill="#000000">comparTo(Pessoa:</text>
<text text-anchor="start" x="163.2205" y="-175" font-family="Helvetica,sans-Serif" font-size="10.00" fill="#000000">pessoa)</text>
<text text-anchor="start" x="160.448" y="-163" font-family="Helvetica,sans-Serif" font-size="10.00" fill="#000000">toString()</text>
</g>
<!-- A2 -->
<g id="node3" class="node">
<title>A2</title>
<polygon fill="none" stroke="#000000" points="122.503,-68 122.503,-100 239.503,-100 239.503,-68 122.503,-68"/>
<text text-anchor="start" x="164.33" y="-81" font-family="Helvetica,sans-Serif" font-size="10.00" fill="#000000">Pessoa</text>
<polygon fill="none" stroke="#000000" points="122.503,0 122.503,-68 239.503,-68 239.503,0 122.503,0"/>
<text text-anchor="start" x="152.389" y="-49" font-family="Helvetica,sans-Serif" font-size="10.00" fill="#000000">&#45;nome:String</text>
<text text-anchor="start" x="139.886" y="-37" font-family="Helvetica,sans-Serif" font-size="10.00" fill="#000000">&#45;sobrenome:String</text>
<text text-anchor="start" x="132.3765" y="-25" font-family="Helvetica,sans-Serif" font-size="10.00" fill="#000000">&#45;data_nasc:LocalDate</text>
<text text-anchor="start" x="147.106" y="-13" font-family="Helvetica,sans-Serif" font-size="10.00" fill="#000000">&#45;telefone:String</text>
</g>
<!-- A1&#45;&gt;A2 -->
<g id="edge1" class="edge">
<title>A1&#45;&gt;A2</title>
<path fill="none" stroke="#000000" d="M180.503,-149.9667C180.503,-137.0225 180.503,-123.3333 180.503,-110.376"/>
<polygon fill="#000000" stroke="#000000" points="180.503,-100.1697 185.0031,-110.1697 180.503,-105.1697 180.5031,-110.1697 180.5031,-110.1697 180.5031,-110.1697 180.503,-105.1697 176.0031,-110.1698 180.503,-100.1697 180.503,-100.1697"/>
</g>
</g>
</svg>
