<?xml version="1.0" encoding="UTF-8" standalone="no"?>
<!DOCTYPE svg PUBLIC "-//W3C//DTD SVG 1.1//EN"
 "http://www.w3.org/Graphics/SVG/1.1/DTD/svg11.dtd">
<!-- Generated by graphviz version 2.40.1 (20161225.0304)
 -->
<!-- Title: G Pages: 1 -->
<svg width="588pt" height="588pt"
 viewBox="0.00 0.00 588.00 588.00" xmlns="http://www.w3.org/2000/svg" xmlns:xlink="http://www.w3.org/1999/xlink">
<g id="graph0" class="graph" transform="scale(1 1) rotate(0) translate(4 584)">
<title>G</title>
<polygon fill="#ffffff" stroke="transparent" points="-4,4 -4,-584 584.003,-584 584.003,4 -4,4"/>
<!-- A0 -->
<g id="node1" class="node">
<title>A0</title>
<polygon fill="#fff8dc" stroke="#000000" points="97.009,-502 -.003,-502 -.003,-466 103.009,-466 103.009,-496 97.009,-502"/>
<polyline fill="none" stroke="#000000" points="97.009,-502 97.009,-496 "/>
<polyline fill="none" stroke="#000000" points="103.009,-496 97.009,-496 "/>
<text text-anchor="middle" x="51.503" y="-487" font-family="Helvetica,sans-Serif" font-size="10.00" fill="#000000">Class diagram to</text>
<text text-anchor="middle" x="51.503" y="-475" font-family="Helvetica,sans-Serif" font-size="10.00" fill="#000000">game</text>
</g>
<!-- A1 -->
<g id="node2" class="node">
<title>A1</title>
<polygon fill="none" stroke="#000000" points="121.503,-536 121.503,-580 304.503,-580 304.503,-536 121.503,-536"/>
<text text-anchor="start" x="184.664" y="-561" font-family="Helvetica,sans-Serif" font-size="10.00" fill="#000000">≪Abstract≫</text>
<text text-anchor="start" x="184.6625" y="-549" font-family="Helvetica,sans-Serif" font-size="10.00" fill="#000000">Personagem</text>
<polygon fill="none" stroke="#000000" points="121.503,-444 121.503,-536 304.503,-536 304.503,-444 121.503,-444"/>
<text text-anchor="start" x="200.7815" y="-517" font-family="Helvetica,sans-Serif" font-size="10.00" fill="#000000">&#45;id:int</text>
<text text-anchor="start" x="193.5525" y="-505" font-family="Helvetica,sans-Serif" font-size="10.00" fill="#000000">&#45;dano:int</text>
<text text-anchor="start" x="185.2235" y="-493" font-family="Helvetica,sans-Serif" font-size="10.00" fill="#000000">&#45;nome:string</text>
<text text-anchor="start" x="195.502" y="-481" font-family="Helvetica,sans-Serif" font-size="10.00" fill="#000000">&#45;vida:int</text>
<text text-anchor="start" x="194.3925" y="-469" font-family="Helvetica,sans-Serif" font-size="10.00" fill="#000000">&#45;nivel:int</text>
<text text-anchor="start" x="167.9965" y="-457" font-family="Helvetica,sans-Serif" font-size="10.00" fill="#000000">MAX_VIDA:static int</text>
<polygon fill="none" stroke="#000000" points="121.503,-388 121.503,-444 304.503,-444 304.503,-388 121.503,-388"/>
<text text-anchor="start" x="167.716" y="-425" font-family="Helvetica,sans-Serif" font-size="10.00" fill="#000000">atacar(Personagem:</text>
<text text-anchor="start" x="183.553" y="-413" font-family="Helvetica,sans-Serif" font-size="10.00" fill="#000000">personagem)</text>
<text text-anchor="start" x="131.038" y="-401" font-family="Helvetica,sans-Serif" font-size="10.00" fill="#000000">defender(Personagem: personagem)</text>
</g>
<!-- A2 -->
<g id="node3" class="node">
<title>A2</title>
<polygon fill="none" stroke="#000000" points="15.503,-306 15.503,-338 198.503,-338 198.503,-306 15.503,-306"/>
<text text-anchor="start" x="95.0605" y="-319" font-family="Helvetica,sans-Serif" font-size="10.00" fill="#000000">Heroi</text>
<polygon fill="none" stroke="#000000" points="15.503,-274 15.503,-306 198.503,-306 198.503,-274 15.503,-274"/>
<text text-anchor="start" x="63.3865" y="-287" font-family="Helvetica,sans-Serif" font-size="10.00" fill="#000000">&#45;coletavel:Coletavel</text>
<polygon fill="none" stroke="#000000" points="15.503,-194 15.503,-274 198.503,-274 198.503,-194 15.503,-194"/>
<text text-anchor="start" x="69.5005" y="-255" font-family="Helvetica,sans-Serif" font-size="10.00" fill="#000000">coletar(Coletavel</text>
<text text-anchor="start" x="102.8385" y="-243" font-family="Helvetica,sans-Serif" font-size="10.00" fill="#000000">c)</text>
<text text-anchor="start" x="61.997" y="-231" font-family="Helvetica,sans-Serif" font-size="10.00" fill="#000000">habilidadeEspecial()</text>
<text text-anchor="start" x="30.8765" y="-219" font-family="Helvetica,sans-Serif" font-size="10.00" fill="#000000">atacar(Personagem: personagem)</text>
<text text-anchor="start" x="25.038" y="-207" font-family="Helvetica,sans-Serif" font-size="10.00" fill="#000000">defender(Personagem: personagem)</text>
</g>
<!-- A1&#45;&gt;A2 -->
<g id="edge1" class="edge">
<title>A1&#45;&gt;A2</title>
<path fill="none" stroke="#000000" d="M165.7013,-387.7474C159.1223,-374.217 152.414,-360.4208 145.9897,-347.2084"/>
<polygon fill="#000000" stroke="#000000" points="141.5925,-338.1651 150.0123,-345.1905 143.7789,-342.6617 145.9654,-347.1583 145.9654,-347.1583 145.9654,-347.1583 143.7789,-342.6617 141.9184,-349.1262 141.5925,-338.1651 141.5925,-338.1651"/>
</g>
<!-- A3 -->
<g id="node4" class="node">
<title>A3</title>
<polygon fill="none" stroke="#000000" points="216.503,-294 216.503,-326 421.503,-326 421.503,-294 216.503,-294"/>
<text text-anchor="start" x="300.946" y="-307" font-family="Helvetica,sans-Serif" font-size="10.00" fill="#000000">Monstro</text>
<polygon fill="none" stroke="#000000" points="216.503,-262 216.503,-294 421.503,-294 421.503,-262 216.503,-262"/>
<text text-anchor="start" x="317.6135" y="-275" font-family="Helvetica,sans-Serif" font-size="10.00" fill="#000000"> </text>
<polygon fill="none" stroke="#000000" points="216.503,-206 216.503,-262 421.503,-262 421.503,-206 216.503,-206"/>
<text text-anchor="start" x="226.2095" y="-243" font-family="Helvetica,sans-Serif" font-size="10.00" fill="#000000"> calcularDano(personagem: Personagem)</text>
<text text-anchor="start" x="242.8765" y="-231" font-family="Helvetica,sans-Serif" font-size="10.00" fill="#000000">atacar(Personagem: personagem)</text>
<text text-anchor="start" x="237.038" y="-219" font-family="Helvetica,sans-Serif" font-size="10.00" fill="#000000">defender(Personagem: personagem)</text>
</g>
<!-- A1&#45;&gt;A3 -->
<g id="edge2" class="edge">
<title>A1&#45;&gt;A3</title>
<path fill="none" stroke="#000000" d="M259.3047,-387.7474C267.915,-370.0395 276.7465,-351.8765 284.8735,-335.1626"/>
<polygon fill="#000000" stroke="#000000" points="289.3101,-326.0382 288.9842,-336.9993 287.1237,-330.5348 284.9372,-335.0315 284.9372,-335.0315 284.9372,-335.0315 287.1237,-330.5348 280.8902,-333.0636 289.3101,-326.0382 289.3101,-326.0382"/>
</g>
<!-- A4 -->
<g id="node5" class="node">
<title>A4</title>
<polygon fill="none" stroke="#000000" points="439.503,-288 439.503,-332 516.503,-332 516.503,-288 439.503,-288"/>
<text text-anchor="start" x="449.664" y="-313" font-family="Helvetica,sans-Serif" font-size="10.00" fill="#000000">≪Abstract≫</text>
<text text-anchor="start" x="468.28" y="-301" font-family="Helvetica,sans-Serif" font-size="10.00" fill="#000000">Item</text>
<polygon fill="none" stroke="#000000" points="439.503,-244 439.503,-288 516.503,-288 516.503,-244 439.503,-244"/>
<text text-anchor="start" x="465.7815" y="-269" font-family="Helvetica,sans-Serif" font-size="10.00" fill="#000000">&#45;id:int</text>
<text text-anchor="start" x="449.389" y="-257" font-family="Helvetica,sans-Serif" font-size="10.00" fill="#000000">&#45;String:nome</text>
<polygon fill="none" stroke="#000000" points="439.503,-200 439.503,-244 516.503,-244 516.503,-200 439.503,-200"/>
<text text-anchor="start" x="464.9505" y="-225" font-family="Helvetica,sans-Serif" font-size="10.00" fill="#000000">usar()</text>
<text text-anchor="start" x="453.8375" y="-213" font-family="Helvetica,sans-Serif" font-size="10.00" fill="#000000">descartar()</text>
</g>
<!-- A5 -->
<g id="node6" class="node">
<title>A5</title>
<polygon fill="none" stroke="#000000" points="386.503,-100 386.503,-132 463.503,-132 463.503,-100 386.503,-100"/>
<text text-anchor="start" x="413.06" y="-113" font-family="Helvetica,sans-Serif" font-size="10.00" fill="#000000">Arma</text>
<polygon fill="none" stroke="#000000" points="386.503,-44 386.503,-100 463.503,-100 463.503,-44 386.503,-44"/>
<text text-anchor="start" x="405.5525" y="-81" font-family="Helvetica,sans-Serif" font-size="10.00" fill="#000000">&#45;dano:int</text>
<text text-anchor="start" x="396.1035" y="-57" font-family="Helvetica,sans-Serif" font-size="10.00" fill="#000000">&#45;uso:boolean</text>
<polygon fill="none" stroke="#000000" points="386.503,-12 386.503,-44 463.503,-44 463.503,-12 386.503,-12"/>
<text text-anchor="start" x="409.731" y="-25" font-family="Helvetica,sans-Serif" font-size="10.00" fill="#000000"> Usar()</text>
</g>
<!-- A4&#45;&gt;A5 -->
<g id="edge3" class="edge">
<title>A4&#45;&gt;A5</title>
<path fill="none" stroke="#000000" d="M459.4116,-199.7788C454.3044,-181.0842 448.7322,-160.6881 443.5696,-141.7909"/>
<polygon fill="#000000" stroke="#000000" points="440.9118,-132.0625 447.8882,-140.5231 442.2296,-136.8858 443.5473,-141.709 443.5473,-141.709 443.5473,-141.709 442.2296,-136.8858 439.2064,-142.895 440.9118,-132.0625 440.9118,-132.0625"/>
</g>
<!-- A6 -->
<g id="node7" class="node">
<title>A6</title>
<polygon fill="none" stroke="#000000" points="481.503,-112 481.503,-144 580.503,-144 580.503,-112 481.503,-112"/>
<text text-anchor="start" x="513.2215" y="-125" font-family="Helvetica,sans-Serif" font-size="10.00" fill="#000000">Poção</text>
<polygon fill="none" stroke="#000000" points="481.503,-44 481.503,-112 580.503,-112 580.503,-44 481.503,-44"/>
<text text-anchor="start" x="506.5575" y="-93" font-family="Helvetica,sans-Serif" font-size="10.00" fill="#000000">&#45;cura:static</text>
<text text-anchor="start" x="515.996" y="-81" font-family="Helvetica,sans-Serif" font-size="10.00" fill="#000000">double</text>
<text text-anchor="start" x="502.1035" y="-69" font-family="Helvetica,sans-Serif" font-size="10.00" fill="#000000">&#45;uso:boolean</text>
<text text-anchor="start" x="491.266" y="-57" font-family="Helvetica,sans-Serif" font-size="10.00" fill="#000000">&#45;coletado:boolean</text>
<polygon fill="none" stroke="#000000" points="481.503,0 481.503,-44 580.503,-44 580.503,0 481.503,0"/>
<text text-anchor="start" x="517.9505" y="-25" font-family="Helvetica,sans-Serif" font-size="10.00" fill="#000000">usar()</text>
<text text-anchor="start" x="503.783" y="-13" font-family="Helvetica,sans-Serif" font-size="10.00" fill="#000000">armazenar()</text>
</g>
<!-- A4&#45;&gt;A6 -->
<g id="edge4" class="edge">
<title>A4&#45;&gt;A6</title>
<path fill="none" stroke="#000000" d="M495.5944,-199.7788C499.604,-185.1019 503.9003,-169.3761 508.0599,-154.1503"/>
<polygon fill="#000000" stroke="#000000" points="510.7692,-144.2331 512.4747,-155.0655 509.4515,-149.0563 508.1338,-153.8795 508.1338,-153.8795 508.1338,-153.8795 509.4515,-149.0563 503.7929,-152.6936 510.7692,-144.2331 510.7692,-144.2331"/>
</g>
<!-- A7 -->
<g id="node8" class="node">
<title>A7</title>
<polygon fill="none" stroke="#000000" points="436.503,-484 436.503,-528 518.503,-528 518.503,-484 436.503,-484"/>
<text text-anchor="start" x="446.374" y="-509" font-family="Helvetica,sans-Serif" font-size="10.00" fill="#000000">&lt;&lt;Interface&gt;&gt;</text>
<text text-anchor="start" x="456.1175" y="-497" font-family="Helvetica,sans-Serif" font-size="10.00" fill="#000000">Coletável</text>
<polygon fill="none" stroke="#000000" points="436.503,-440 436.503,-484 518.503,-484 518.503,-440 436.503,-440"/>
<text text-anchor="start" x="448.8935" y="-465" font-family="Helvetica,sans-Serif" font-size="10.00" fill="#000000"> armazenar()</text>
<text text-anchor="start" x="464.4505" y="-453" font-family="Helvetica,sans-Serif" font-size="10.00" fill="#000000">usar()</text>
</g>
<!-- A7&#45;&gt;A4 -->
<g id="edge5" class="edge">
<title>A7&#45;&gt;A4</title>
<path fill="none" stroke="#000000" d="M477.503,-439.8844C477.503,-412.0428 477.503,-375.3212 477.503,-342.8007"/>
<polygon fill="#000000" stroke="#000000" points="477.503,-332.4063 482.0031,-342.4062 477.503,-337.4063 477.5031,-342.4063 477.5031,-342.4063 477.5031,-342.4063 477.503,-337.4063 473.0031,-342.4063 477.503,-332.4063 477.503,-332.4063"/>
</g>
</g>
</svg>
