<?xml version="1.0" encoding="UTF-8" standalone="no"?>
<!DOCTYPE svg PUBLIC "-//W3C//DTD SVG 1.1//EN"
 "http://www.w3.org/Graphics/SVG/1.1/DTD/svg11.dtd">
<!-- Generated by graphviz version 2.40.1 (20161225.0304)
 -->
<!-- Title: G Pages: 1 -->
<svg width="600pt" height="372pt"
 viewBox="0.00 0.00 599.50 372.00" xmlns="http://www.w3.org/2000/svg" xmlns:xlink="http://www.w3.org/1999/xlink">
<g id="graph0" class="graph" transform="scale(1 1) rotate(0) translate(4 368)">
<title>G</title>
<polygon fill="#ffffff" stroke="transparent" points="-4,4 -4,-368 595.5,-368 595.5,4 -4,4"/>
<!-- A0 -->
<g id="node1" class="node">
<title>A0</title>
<polygon fill="none" stroke="#000000" points="103.1816,-286 18.8184,-286 18.8184,-250 103.1816,-250 103.1816,-286"/>
<text text-anchor="middle" x="61" y="-265" font-family="Helvetica,sans-Serif" font-size="10.00" fill="#000000">Personagem</text>
</g>
<!-- A1 -->
<g id="node2" class="node">
<title>A1</title>
<polygon fill="none" stroke="#000000" points="54,-122 0,-122 0,-86 54,-86 54,-122"/>
<text text-anchor="middle" x="27" y="-101" font-family="Helvetica,sans-Serif" font-size="10.00" fill="#000000">Heroi</text>
</g>
<!-- A0&#45;&gt;A1 -->
<g id="edge1" class="edge">
<title>A0&#45;&gt;A1</title>
<path fill="none" stroke="#000000" d="M57.2315,-249.8225C51.3342,-221.3769 39.8775,-166.1152 32.8858,-132.3904"/>
<polygon fill="#000000" stroke="#000000" points="30.7854,-122.2589 37.2218,-131.1371 31.8004,-127.1548 32.8155,-132.0507 32.8155,-132.0507 32.8155,-132.0507 31.8004,-127.1548 28.4092,-132.9642 30.7854,-122.2589 30.7854,-122.2589"/>
</g>
<!-- A2 -->
<g id="node3" class="node">
<title>A2</title>
<polygon fill="none" stroke="#000000" points="136.1141,-122 71.8859,-122 71.8859,-86 136.1141,-86 136.1141,-122"/>
<text text-anchor="middle" x="104" y="-101" font-family="Helvetica,sans-Serif" font-size="10.00" fill="#000000">Monstro</text>
</g>
<!-- A0&#45;&gt;A2 -->
<g id="edge2" class="edge">
<title>A0&#45;&gt;A2</title>
<path fill="none" stroke="#000000" d="M65.766,-249.8225C73.2566,-221.2537 87.8393,-165.6362 96.6707,-131.9537"/>
<polygon fill="#000000" stroke="#000000" points="99.2126,-122.2589 101.0292,-133.0733 97.9445,-127.0954 96.6763,-131.9319 96.6763,-131.9319 96.6763,-131.9319 97.9445,-127.0954 92.3234,-130.7906 99.2126,-122.2589 99.2126,-122.2589"/>
</g>
<!-- A3 -->
<g id="node4" class="node">
<title>A3</title>
<polygon fill="none" stroke="#000000" points="217,-122 163,-122 163,-86 217,-86 217,-122"/>
<text text-anchor="middle" x="190" y="-101" font-family="Helvetica,sans-Serif" font-size="10.00" fill="#000000">Item</text>
</g>
<!-- A4 -->
<g id="node5" class="node">
<title>A4</title>
<polygon fill="none" stroke="#000000" points="179,-36 125,-36 125,0 179,0 179,-36"/>
<text text-anchor="middle" x="152" y="-15" font-family="Helvetica,sans-Serif" font-size="10.00" fill="#000000">Arma</text>
</g>
<!-- A3&#45;&gt;A4 -->
<g id="edge3" class="edge">
<title>A3&#45;&gt;A4</title>
<path fill="none" stroke="#000000" d="M181.9412,-85.7616C176.8023,-74.1316 170.0437,-58.8357 164.2484,-45.72"/>
<polygon fill="#000000" stroke="#000000" points="160.0472,-36.2121 168.205,-43.5402 162.0681,-40.7855 164.0889,-45.359 164.0889,-45.359 164.0889,-45.359 162.0681,-40.7855 159.9728,-47.1777 160.0472,-36.2121 160.0472,-36.2121"/>
</g>
<!-- A5 -->
<g id="node6" class="node">
<title>A5</title>
<polygon fill="none" stroke="#000000" points="260.5645,-36 197.4355,-36 197.4355,0 260.5645,0 260.5645,-36"/>
<text text-anchor="middle" x="229" y="-15" font-family="Helvetica,sans-Serif" font-size="10.00" fill="#000000">Poção</text>
</g>
<!-- A3&#45;&gt;A5 -->
<g id="edge4" class="edge">
<title>A3&#45;&gt;A5</title>
<path fill="none" stroke="#000000" d="M198.2709,-85.7616C203.5967,-74.0176 210.6176,-58.5355 216.604,-45.3349"/>
<polygon fill="#000000" stroke="#000000" points="220.741,-36.2121 220.7092,-47.1779 218.676,-40.7657 216.6109,-45.3194 216.6109,-45.3194 216.6109,-45.3194 218.676,-40.7657 212.5126,-43.4608 220.741,-36.2121 220.741,-36.2121"/>
</g>
<!-- A6 -->
<g id="node7" class="node">
<title>A6</title>
<polygon fill="none" stroke="#000000" points="225.2714,-286 154.7286,-286 154.7286,-250 225.2714,-250 225.2714,-286"/>
<text text-anchor="middle" x="190" y="-265" font-family="Helvetica,sans-Serif" font-size="10.00" fill="#000000">Coletável</text>
</g>
<!-- A6&#45;&gt;A3 -->
<g id="edge5" class="edge">
<title>A6&#45;&gt;A3</title>
<path fill="none" stroke="#000000" d="M190,-249.8225C190,-221.3769 190,-166.1152 190,-132.3904"/>
<polygon fill="#000000" stroke="#000000" points="190,-122.2589 194.5001,-132.2589 190,-127.2589 190.0001,-132.2589 190.0001,-132.2589 190.0001,-132.2589 190,-127.2589 185.5001,-132.2589 190,-122.2589 190,-122.2589"/>
</g>
<!-- A7 -->
<g id="node8" class="node">
<title>A7</title>
<polygon fill="none" stroke="#000000" points="243,-320 243,-364 353,-364 353,-320 243,-320"/>
<text text-anchor="start" x="269.661" y="-345" font-family="Helvetica,sans-Serif" font-size="10.00" fill="#000000">≪Abstract≫</text>
<text text-anchor="start" x="269.6595" y="-333" font-family="Helvetica,sans-Serif" font-size="10.00" fill="#000000">Personagem</text>
<polygon fill="none" stroke="#000000" points="243,-216 243,-320 353,-320 353,-216 243,-216"/>
<text text-anchor="start" x="285.7785" y="-301" font-family="Helvetica,sans-Serif" font-size="10.00" fill="#000000">&#45;id:int</text>
<text text-anchor="start" x="278.5495" y="-289" font-family="Helvetica,sans-Serif" font-size="10.00" fill="#000000">&#45;dano:int</text>
<text text-anchor="start" x="270.2205" y="-265" font-family="Helvetica,sans-Serif" font-size="10.00" fill="#000000">&#45;nome:string</text>
<text text-anchor="start" x="280.499" y="-253" font-family="Helvetica,sans-Serif" font-size="10.00" fill="#000000">&#45;vida:int</text>
<text text-anchor="start" x="279.3895" y="-241" font-family="Helvetica,sans-Serif" font-size="10.00" fill="#000000">&#45;nivel:int</text>
<text text-anchor="start" x="252.9935" y="-229" font-family="Helvetica,sans-Serif" font-size="10.00" fill="#000000">MAX_VIDA:static int</text>
<polygon fill="none" stroke="#000000" points="243,-172 243,-216 353,-216 353,-172 243,-172"/>
<text text-anchor="start" x="280.7785" y="-197" font-family="Helvetica,sans-Serif" font-size="10.00" fill="#000000">atacar()</text>
<text text-anchor="start" x="274.94" y="-185" font-family="Helvetica,sans-Serif" font-size="10.00" fill="#000000">defender()</text>
</g>
<!-- A8 -->
<g id="node9" class="node">
<title>A8</title>
<polygon fill="none" stroke="#000000" points="372,-290 372,-334 449,-334 449,-290 372,-290"/>
<text text-anchor="start" x="382.161" y="-315" font-family="Helvetica,sans-Serif" font-size="10.00" fill="#000000">≪Abstract≫</text>
<text text-anchor="start" x="400.777" y="-303" font-family="Helvetica,sans-Serif" font-size="10.00" fill="#000000">Item</text>
<polygon fill="none" stroke="#000000" points="372,-246 372,-290 449,-290 449,-246 372,-246"/>
<text text-anchor="start" x="398.2785" y="-271" font-family="Helvetica,sans-Serif" font-size="10.00" fill="#000000">&#45;id:int</text>
<text text-anchor="start" x="381.886" y="-259" font-family="Helvetica,sans-Serif" font-size="10.00" fill="#000000">&#45;String:nome</text>
<polygon fill="none" stroke="#000000" points="372,-202 372,-246 449,-246 449,-202 372,-202"/>
<text text-anchor="start" x="397.4475" y="-227" font-family="Helvetica,sans-Serif" font-size="10.00" fill="#000000">usar()</text>
<text text-anchor="start" x="386.3345" y="-215" font-family="Helvetica,sans-Serif" font-size="10.00" fill="#000000">descartar()</text>
</g>
<!-- A9 -->
<g id="node10" class="node">
<title>A9</title>
<polygon fill="none" stroke="#000000" points="467,-274 467,-306 592,-306 592,-274 467,-274"/>
<text text-anchor="start" x="476.9855" y="-287" font-family="Helvetica,sans-Serif" font-size="10.00" fill="#000000">&lt;&lt;Interface&gt;&gt;Coletável</text>
<polygon fill="none" stroke="#000000" points="467,-230 467,-274 592,-274 592,-230 467,-230"/>
<text text-anchor="start" x="500.8905" y="-255" font-family="Helvetica,sans-Serif" font-size="10.00" fill="#000000"> armazenar()</text>
<text text-anchor="start" x="516.4475" y="-243" font-family="Helvetica,sans-Serif" font-size="10.00" fill="#000000">usar()</text>
</g>
</g>
</svg>
