<?xml version="1.0" encoding="UTF-8" standalone="no"?>
<!DOCTYPE svg PUBLIC "-//W3C//DTD SVG 1.1//EN"
 "http://www.w3.org/Graphics/SVG/1.1/DTD/svg11.dtd">
<!-- Generated by graphviz version 2.40.1 (20161225.0304)
 -->
<!-- Title: G Pages: 1 -->
<svg width="849pt" height="412pt"
 viewBox="0.00 0.00 849.23 412.00" xmlns="http://www.w3.org/2000/svg" xmlns:xlink="http://www.w3.org/1999/xlink">
<g id="graph0" class="graph" transform="scale(1 1) rotate(0) translate(4 408)">
<title>G</title>
<polygon fill="#ffffff" stroke="transparent" points="-4,4 -4,-408 845.226,-408 845.226,4 -4,4"/>
<!-- A0 -->
<g id="node1" class="node">
<title>A0</title>
<polygon fill="#ffffff" stroke="#000000" points="248.6331,-384 130.3669,-384 130.3669,-328 254.6331,-328 254.6331,-378 248.6331,-384"/>
<polyline fill="none" stroke="#000000" points="248.6331,-384 248.6331,-378 "/>
<polyline fill="none" stroke="#000000" points="254.6331,-378 248.6331,-378 "/>
<text text-anchor="middle" x="192.5" y="-371" font-family="Helvetica,sans-Serif" font-size="10.00" fill="#000000">Class diagram for</text>
<text text-anchor="middle" x="192.5" y="-359" font-family="Helvetica,sans-Serif" font-size="10.00" fill="#000000">the payment system</text>
<text text-anchor="middle" x="192.5" y="-347" font-family="Helvetica,sans-Serif" font-size="10.00" fill="#000000">using Factory Method</text>
<text text-anchor="middle" x="192.5" y="-335" font-family="Helvetica,sans-Serif" font-size="10.00" fill="#000000">pattern</text>
</g>
<!-- A1 -->
<g id="node2" class="node">
<title>A1</title>
<polygon fill="none" stroke="#000000" points="272.5,-360 272.5,-404 422.5,-404 422.5,-360 272.5,-360"/>
<text text-anchor="start" x="316.371" y="-385" font-family="Helvetica,sans-Serif" font-size="10.00" fill="#000000">&lt;&lt;Interface&gt;&gt;</text>
<text text-anchor="start" x="327.773" y="-373" font-family="Helvetica,sans-Serif" font-size="10.00" fill="#000000">Payment</text>
<polygon fill="none" stroke="#000000" points="272.5,-340 272.5,-360 422.5,-360 422.5,-340 272.5,-340"/>
<polygon fill="none" stroke="#000000" points="272.5,-308 272.5,-340 422.5,-340 422.5,-308 272.5,-308"/>
<text text-anchor="start" x="282.0635" y="-321" font-family="Helvetica,sans-Serif" font-size="10.00" fill="#000000">+pagar(valor:double):boolean</text>
</g>
<!-- A2 -->
<g id="node3" class="node">
<title>A2</title>
<polygon fill="none" stroke="#000000" points=".5,-196 .5,-228 117.5,-228 117.5,-196 .5,-196"/>
<text text-anchor="start" x="48.167" y="-209" font-family="Helvetica,sans-Serif" font-size="10.00" fill="#000000">Card</text>
<polygon fill="none" stroke="#000000" points=".5,-116 .5,-196 117.5,-196 117.5,-116 .5,-116"/>
<text text-anchor="start" x="16.2195" y="-177" font-family="Helvetica,sans-Serif" font-size="10.00" fill="#000000">&#45;nome_titular:string</text>
<text text-anchor="start" x="10.1045" y="-165" font-family="Helvetica,sans-Serif" font-size="10.00" fill="#000000">&#45;numero_cartao:string</text>
<text text-anchor="start" x="15.094" y="-153" font-family="Helvetica,sans-Serif" font-size="10.00" fill="#000000">&#45;data_validade:date</text>
<text text-anchor="start" x="36.2235" y="-141" font-family="Helvetica,sans-Serif" font-size="10.00" fill="#000000">&#45;cvv:string</text>
<text text-anchor="start" x="30.1055" y="-129" font-family="Helvetica,sans-Serif" font-size="10.00" fill="#000000">&#45;banco:string</text>
</g>
<!-- A1&#45;&gt;A2 -->
<g id="edge1" class="edge">
<title>A1&#45;&gt;A2</title>
<path fill="none" stroke="#000000" d="M263.0313,-308.0772C202.2407,-282.0255 176.5698,-294.1892 126.5,-258 115.0845,-249.7491 104.5866,-239.0824 95.4298,-228.0859"/>
<polygon fill="#000000" stroke="#000000" points="272.2624,-312.2085 261.2965,-312.2308 267.6986,-310.1659 263.1348,-308.1234 263.1348,-308.1234 263.1348,-308.1234 267.6986,-310.1659 264.973,-304.016 272.2624,-312.2085 272.2624,-312.2085"/>
</g>
<!-- A3 -->
<g id="node4" class="node">
<title>A3</title>
<polygon fill="none" stroke="#000000" points="135.5,-190 135.5,-222 267.5,-222 267.5,-190 135.5,-190"/>
<text text-anchor="start" x="181.7735" y="-203" font-family="Helvetica,sans-Serif" font-size="10.00" fill="#000000">BankSlip</text>
<polygon fill="none" stroke="#000000" points="135.5,-122 135.5,-190 267.5,-190 267.5,-122 135.5,-122"/>
<text text-anchor="start" x="145.3815" y="-171" font-family="Helvetica,sans-Serif" font-size="10.00" fill="#000000">&#45;nome_beneficiario:string</text>
<text text-anchor="start" x="179.5545" y="-159" font-family="Helvetica,sans-Serif" font-size="10.00" fill="#000000">&#45;cpf:string</text>
<text text-anchor="start" x="150.6495" y="-147" font-family="Helvetica,sans-Serif" font-size="10.00" fill="#000000">&#45;data_vencimento:date</text>
<text text-anchor="start" x="157.049" y="-135" font-family="Helvetica,sans-Serif" font-size="10.00" fill="#000000">&#45;codigo_barra:string</text>
</g>
<!-- A1&#45;&gt;A3 -->
<g id="edge2" class="edge">
<title>A1&#45;&gt;A3</title>
<path fill="none" stroke="#000000" d="M302.8947,-299.7852C283.2805,-275.0659 260.4265,-246.2635 241.3861,-222.2674"/>
<polygon fill="#000000" stroke="#000000" points="309.1402,-307.6562 299.3993,-302.6197 306.0323,-303.7394 302.9244,-299.8226 302.9244,-299.8226 302.9244,-299.8226 306.0323,-303.7394 306.4495,-297.0255 309.1402,-307.6562 309.1402,-307.6562"/>
</g>
<!-- A4 -->
<g id="node5" class="node">
<title>A4</title>
<polygon fill="none" stroke="#000000" points="286.5,-226 286.5,-258 409.5,-258 409.5,-226 286.5,-226"/>
<text text-anchor="start" x="329.3885" y="-239" font-family="Helvetica,sans-Serif" font-size="10.00" fill="#000000">Transfer</text>
<polygon fill="none" stroke="#000000" points="286.5,-86 286.5,-226 409.5,-226 409.5,-86 286.5,-86"/>
<text text-anchor="start" x="307.998" y="-207" font-family="Helvetica,sans-Serif" font-size="10.00" fill="#000000">&#45;cpf_origem:string</text>
<text text-anchor="start" x="307.158" y="-195" font-family="Helvetica,sans-Serif" font-size="10.00" fill="#000000">&#45;cpf_destino:string</text>
<text text-anchor="start" x="301.049" y="-183" font-family="Helvetica,sans-Serif" font-size="10.00" fill="#000000">&#45;banco_origem:string</text>
<text text-anchor="start" x="300.209" y="-171" font-family="Helvetica,sans-Serif" font-size="10.00" fill="#000000">&#45;banco_destino:string</text>
<text text-anchor="start" x="297.16" y="-159" font-family="Helvetica,sans-Serif" font-size="10.00" fill="#000000">&#45;agencia_origem:string</text>
<text text-anchor="start" x="296.32" y="-147" font-family="Helvetica,sans-Serif" font-size="10.00" fill="#000000">&#45;agencia_destino:string</text>
<text text-anchor="start" x="302.439" y="-135" font-family="Helvetica,sans-Serif" font-size="10.00" fill="#000000">&#45;conta_origem:string</text>
<text text-anchor="start" x="301.599" y="-123" font-family="Helvetica,sans-Serif" font-size="10.00" fill="#000000">&#45;conta_destino:string</text>
<text text-anchor="start" x="302.164" y="-111" font-family="Helvetica,sans-Serif" font-size="10.00" fill="#000000">&#45;nome_origem:string</text>
<text text-anchor="start" x="301.324" y="-99" font-family="Helvetica,sans-Serif" font-size="10.00" fill="#000000">&#45;nome_destino:string</text>
</g>
<!-- A1&#45;&gt;A4 -->
<g id="edge3" class="edge">
<title>A1&#45;&gt;A4</title>
<path fill="none" stroke="#000000" d="M347.5,-297.3904C347.5,-284.8729 347.5,-271.4012 347.5,-258.095"/>
<polygon fill="#000000" stroke="#000000" points="347.5,-307.6562 343.0001,-297.6561 347.5,-302.6562 347.5001,-297.6562 347.5001,-297.6562 347.5001,-297.6562 347.5,-302.6562 352.0001,-297.6562 347.5,-307.6562 347.5,-307.6562"/>
</g>
<!-- A5 -->
<g id="node6" class="node">
<title>A5</title>
<polygon fill="none" stroke="#000000" points="427.5,-196 427.5,-228 512.5,-228 512.5,-196 427.5,-196"/>
<text text-anchor="start" x="461.9415" y="-209" font-family="Helvetica,sans-Serif" font-size="10.00" fill="#000000">PIX</text>
<polygon fill="none" stroke="#000000" points="427.5,-116 427.5,-196 512.5,-196 512.5,-116 427.5,-116"/>
<text text-anchor="start" x="441.385" y="-177" font-family="Helvetica,sans-Serif" font-size="10.00" fill="#000000">&#45;chave:string</text>
<text text-anchor="start" x="441.1055" y="-165" font-family="Helvetica,sans-Serif" font-size="10.00" fill="#000000">&#45;banco:string</text>
<text text-anchor="start" x="442.4955" y="-153" font-family="Helvetica,sans-Serif" font-size="10.00" fill="#000000">&#45;conta:string</text>
<text text-anchor="start" x="437.2165" y="-141" font-family="Helvetica,sans-Serif" font-size="10.00" fill="#000000">&#45;agencia:string</text>
<text text-anchor="start" x="442.2205" y="-129" font-family="Helvetica,sans-Serif" font-size="10.00" fill="#000000">&#45;nome:string</text>
</g>
<!-- A1&#45;&gt;A5 -->
<g id="edge4" class="edge">
<title>A1&#45;&gt;A5</title>
<path fill="none" stroke="#000000" d="M389.0192,-299.4273C398.5743,-285.9848 408.5526,-271.596 417.5,-258 423.7345,-248.5264 430.1554,-238.3193 436.2661,-228.362"/>
<polygon fill="#000000" stroke="#000000" points="383.1375,-307.6593 385.2896,-296.9066 386.0442,-303.591 388.951,-299.5227 388.951,-299.5227 388.951,-299.5227 386.0442,-303.591 392.6125,-302.1388 383.1375,-307.6593 383.1375,-307.6593"/>
</g>
<!-- A6 -->
<g id="node7" class="node">
<title>A6</title>
<polygon fill="none" stroke="#000000" points="530.5,-172 530.5,-216 745.5,-216 745.5,-172 530.5,-172"/>
<text text-anchor="start" x="607.985" y="-197" font-family="Helvetica,sans-Serif" font-size="10.00" fill="#000000">&lt;&lt;Abstract&gt;&gt;</text>
<text text-anchor="start" x="601.6055" y="-185" font-family="Helvetica,sans-Serif" font-size="10.00" fill="#000000">PaymentFactory</text>
<polygon fill="none" stroke="#000000" points="530.5,-128 530.5,-172 745.5,-172 745.5,-128 530.5,-128"/>
<text text-anchor="start" x="540.337" y="-153" font-family="Helvetica,sans-Serif" font-size="10.00" fill="#000000">+processPayment(double:valor):Pagamento</text>
<text text-anchor="start" x="590.903" y="-141" font-family="Helvetica,sans-Serif" font-size="10.00" fill="#000000">+createPayment:void</text>
</g>
<!-- A1&#45;&gt;A6 -->
<g id="edge5" class="edge">
<title>A1&#45;&gt;A6</title>
<path fill="none" stroke="#000000" d="M431.5139,-311.039C460.1787,-295.0099 492.1408,-276.3632 520.5,-258 540.4968,-245.0516 561.6734,-229.944 580.4338,-216.0357"/>
<polygon fill="none" stroke="#000000" points="429.7677,-308.0053 422.7315,-315.9264 433.1715,-314.122 429.7677,-308.0053"/>
</g>
<!-- A7 -->
<g id="node8" class="node">
<title>A7</title>
<polygon fill="none" stroke="#000000" points="510.001,-36 426.999,-36 426.999,0 510.001,0 510.001,-36"/>
<text text-anchor="middle" x="468.5" y="-15" font-family="Helvetica,sans-Serif" font-size="10.00" fill="#000000">CardFactory</text>
</g>
<!-- A6&#45;&gt;A7 -->
<g id="edge6" class="edge">
<title>A6&#45;&gt;A7</title>
<path fill="none" stroke="#000000" d="M581.5026,-120.9728C549.4906,-91.8021 511.2967,-56.9982 488.5176,-36.2409"/>
<polygon fill="#000000" stroke="#000000" points="589.0714,-127.8698 578.6489,-124.4605 585.3756,-124.502 581.6799,-121.1343 581.6799,-121.1343 581.6799,-121.1343 585.3756,-124.502 584.7108,-117.8081 589.0714,-127.8698 589.0714,-127.8698"/>
</g>
<!-- A8 -->
<g id="node9" class="node">
<title>A8</title>
<polygon fill="none" stroke="#000000" points="628.7882,-36 528.2118,-36 528.2118,0 628.7882,0 628.7882,-36"/>
<text text-anchor="middle" x="578.5" y="-15" font-family="Helvetica,sans-Serif" font-size="10.00" fill="#000000">BankSlipFactory</text>
</g>
<!-- A6&#45;&gt;A8 -->
<g id="edge7" class="edge">
<title>A6&#45;&gt;A8</title>
<path fill="none" stroke="#000000" d="M616.9549,-118.3738C605.9919,-89.7584 593.206,-56.3851 585.4884,-36.2409"/>
<polygon fill="#000000" stroke="#000000" points="620.593,-127.8698 612.8131,-120.1416 618.8041,-123.2007 617.0153,-118.5316 617.0153,-118.5316 617.0153,-118.5316 618.8041,-123.2007 621.2175,-116.9217 620.593,-127.8698 620.593,-127.8698"/>
</g>
<!-- A9 -->
<g id="node10" class="node">
<title>A9</title>
<polygon fill="none" stroke="#000000" points="745.559,-36 647.441,-36 647.441,0 745.559,0 745.559,-36"/>
<text text-anchor="middle" x="696.5" y="-15" font-family="Helvetica,sans-Serif" font-size="10.00" fill="#000000">TransferFactory</text>
</g>
<!-- A6&#45;&gt;A9 -->
<g id="edge8" class="edge">
<title>A6&#45;&gt;A9</title>
<path fill="none" stroke="#000000" d="M658.0451,-118.3738C669.0081,-89.7584 681.794,-56.3851 689.5116,-36.2409"/>
<polygon fill="#000000" stroke="#000000" points="654.407,-127.8698 653.7825,-116.9217 656.1959,-123.2007 657.9847,-118.5316 657.9847,-118.5316 657.9847,-118.5316 656.1959,-123.2007 662.1869,-120.1416 654.407,-127.8698 654.407,-127.8698"/>
</g>
<!-- A10 -->
<g id="node11" class="node">
<title>A10</title>
<polygon fill="none" stroke="#000000" points="841.4533,-36 763.5467,-36 763.5467,0 841.4533,0 841.4533,-36"/>
<text text-anchor="middle" x="802.5" y="-15" font-family="Helvetica,sans-Serif" font-size="10.00" fill="#000000">PIXFactory</text>
</g>
<!-- A6&#45;&gt;A10 -->
<g id="edge9" class="edge">
<title>A6&#45;&gt;A10</title>
<path fill="none" stroke="#000000" d="M692.172,-120.9728C723.4263,-91.8021 760.7162,-56.9982 782.9562,-36.2409"/>
<polygon fill="#000000" stroke="#000000" points="684.7824,-127.8698 689.0225,-117.7568 688.4377,-124.4582 692.093,-121.0466 692.093,-121.0466 692.093,-121.0466 688.4377,-124.4582 695.1634,-124.3363 684.7824,-127.8698 684.7824,-127.8698"/>
</g>
</g>
</svg>
